<?xml version="1.0" encoding="utf-8"?>
<!-- Generator: Adobe Illustrator 24.0.1, SVG Export Plug-In . SVG Version: 6.00 Build 0)  -->
<svg version="1.1" id="Layer_1" xmlns="http://www.w3.org/2000/svg" xmlns:xlink="http://www.w3.org/1999/xlink" x="0px" y="0px"
	 viewBox="0 0 1365 697" style="enable-background:new 0 0 1365 697;" xml:space="preserve">
<style type="text/css">
	.st0{fill:#7EBF17;stroke:#FFFFFF;stroke-width:3;stroke-miterlimit:10;}
	.st1{fill:#FFFFFF;}
	.st2{font-family:'MyriadPro-Bold';}
	.st3{font-size:25px;}
	.st4{font-size:11px;}
</style>
<image style="overflow:visible;enable-background:new    ;" width="800" height="434" xlink:href="EFED2ABA.jpeg"  transform="matrix(1.5858 0 0 1.5858 48.6703 3.9562)">
</image>
<polygon class="st0" points="471.1,31.1 471.1,137.5 442.3,137.5 442.3,175.4 286,175.4 314.9,86.3 374.9,31.1 "/>
<path class="st0" d="M956.4,49.3v83.9h146.1l-13.4-63.3C1089.1,69.9,1010.1,36.6,956.4,49.3z"/>
<polygon class="st0" points="822.4,46.4 822.4,133.2 956.4,133.2 956.4,49.3 "/>
<rect x="822.4" y="133.2" class="st0" width="109.7" height="78.9"/>
<rect x="822.4" y="212" class="st0" width="109.7" height="78.9"/>
<rect x="932.1" y="133.2" class="st0" width="107.6" height="78.9"/>
<rect x="932.1" y="212" class="st0" width="107.6" height="78.9"/>
<rect x="822.4" y="292.2" class="st0" width="109.7" height="78.9"/>
<rect x="932.1" y="292.2" class="st0" width="107.6" height="78.9"/>
<path class="st0" d="M932.1,501.9l-62.8,9.5c0,0-32.5,8.6-46.1-29.4c-0.5-1.4-0.8-2.9-0.8-4.4V371.1h109.7L932.1,501.9L932.1,501.9z
	"/>
<path class="st0" d="M1039.7,458.2v-87.1H932.1v130.8l62-8.1c0.8-0.1,1.5-0.2,2.3-0.2C1002.5,493.3,1036.8,490.4,1039.7,458.2z"/>
<text transform="matrix(1 0 0 1 873.4614 92.6267)" class="st1 st2 st3">19</text>
<text transform="matrix(1 0 0 1 858.8243 109.3078)" class="st1 st2 st4">287 SQ Yard</text>
<text transform="matrix(1 0 0 1 1007.5712 92.6265)" class="st1 st2 st3">28</text>
<text transform="matrix(1 0 0 1 992.9343 109.3075)" class="st1 st2 st4">287 SQ Yard</text>
<text transform="matrix(1 0 0 1 969.1976 175.3518)" class="st1 st2 st3">27</text>
<text transform="matrix(1 0 0 1 954.5607 192.0328)" class="st1 st2 st4">213 SQ Yard</text>
<text transform="matrix(1 0 0 1 971.9669 252.9122)" class="st1 st2 st3">26</text>
<text transform="matrix(1 0 0 1 957.3299 269.5932)" class="st1 st2 st4">213 SQ Yard</text>
<text transform="matrix(1 0 0 1 860.8018 252.9123)" class="st1 st2 st3">21</text>
<text transform="matrix(1 0 0 1 846.1649 269.5933)" class="st1 st2 st4">213 SQ Yard</text>
<text transform="matrix(1 0 0 1 863.571 331.4507)" class="st1 st2 st3">22</text>
<text transform="matrix(1 0 0 1 848.9341 348.1318)" class="st1 st2 st4">213 SQ Yard</text>
<text transform="matrix(1 0 0 1 973.1534 330.4508)" class="st1 st2 st3">25</text>
<text transform="matrix(1 0 0 1 958.5165 347.1319)" class="st1 st2 st4">213 SQ Yard</text>
<text transform="matrix(1 0 0 1 971.9667 423.3519)" class="st1 st2 st3">24</text>
<text transform="matrix(1 0 0 1 954.3298 440.033)" class="st1 st2 st4">333 SQ Yard</text>
<text transform="matrix(1 0 0 1 860.8019 431.3517)" class="st1 st2 st3">23</text>
<text transform="matrix(1 0 0 1 849.165 448.0327)" class="st1 st2 st4">370 SQ Yard</text>
<text transform="matrix(1 0 0 1 862.802 174.121)" class="st1 st2 st3">20</text>
<polygon class="st0" points="612.8,40.2 612.8,139.9 719.6,139.9 719.6,42.2 "/>
<text transform="matrix(1 0 0 1 848.165 190.802)" class="st1 st2 st4">213 SQ Yard</text>
<text transform="matrix(1 0 0 1 651.6011 89.6149)" class="st1 st2 st3">18</text>
<text transform="matrix(1 0 0 1 636.964 106.296)" class="st1 st2 st4">278 SQ Yard</text>
<rect x="502.8" y="139.9" class="st0" width="110" height="79.1"/>
<text transform="matrix(1 0 0 1 549.964 179.7002)" class="st1 st2 st3">8</text>
<text transform="matrix(1 0 0 1 528.3268 196.3813)" class="st1 st2 st4">213 SQ Yard</text>
<rect x="612.8" y="139.9" class="st0" width="106.8" height="79.1"/>
<text transform="matrix(1 0 0 1 653.942 179.7002)" class="st1 st2 st3">17</text>
<text transform="matrix(1 0 0 1 638.3049 196.3813)" class="st1 st2 st4">213 SQ Yard</text>
<rect x="612.8" y="219" class="st0" width="106.8" height="79.1"/>
<text transform="matrix(1 0 0 1 653.942 258.8432)" class="st1 st2 st3">16</text>
<text transform="matrix(1 0 0 1 638.3049 275.5244)" class="st1 st2 st4">213 SQ Yard</text>
<rect x="612.8" y="297.4" class="st0" width="106.8" height="79.1"/>
<text transform="matrix(1 0 0 1 653.942 337.2359)" class="st1 st2 st3">15</text>
<text transform="matrix(1 0 0 1 638.3049 353.9171)" class="st1 st2 st4">213 SQ Yard</text>
<rect x="612.8" y="376.6" class="st0" width="106.8" height="79.1"/>
<text transform="matrix(1 0 0 1 653.942 416.3789)" class="st1 st2 st3">14</text>
<text transform="matrix(1 0 0 1 638.3049 433.0601)" class="st1 st2 st4">213 SQ Yard</text>
<rect x="502.8" y="219" class="st0" width="110" height="79.1"/>
<text transform="matrix(1 0 0 1 549.964 258.8432)" class="st1 st2 st3">9</text>
<text transform="matrix(1 0 0 1 528.3268 275.5244)" class="st1 st2 st4">213 SQ Yard</text>
<rect x="502.8" y="298.2" class="st0" width="110" height="79.1"/>
<text transform="matrix(1 0 0 1 542.964 337.9862)" class="st1 st2 st3">10</text>
<text transform="matrix(1 0 0 1 528.3268 354.6674)" class="st1 st2 st4">213 SQ Yard</text>
<rect x="502.8" y="377.3" class="st0" width="110" height="79.1"/>
<text transform="matrix(1 0 0 1 542.964 417.1292)" class="st1 st2 st3">11</text>
<text transform="matrix(1 0 0 1 528.3268 433.8104)" class="st1 st2 st4">213 SQ Yard</text>
<path class="st0" d="M612.8,549l-60.5,9.5c0,0-41.5,5.1-49.5-31.6v-70.4h110V549z"/>
<path class="st0" d="M719.6,507.6c0,0-2.4,21.6-26.9,29.5L612.8,549v-92.5l106.8-0.8V507.6z"/>
<text transform="matrix(1 0 0 1 638.1946 499.2329)" class="st1 st2 st3">12/A</text>
<text transform="matrix(1 0 0 1 633.5575 515.9141)" class="st1 st2 st4">231 SQ Yard</text>
<text transform="matrix(1 0 0 1 543.3267 502.8947)" class="st1 st2 st3">12</text>
<text transform="matrix(1 0 0 1 527.6895 519.5758)" class="st1 st2 st4">268 SQ Yard</text>
<polygon class="st0" points="471.1,31.9 471.1,139.9 612.8,139.9 612.8,40.2 "/>
<text transform="matrix(1 0 0 1 533.6895 85.8895)" class="st1 st2 st3">7</text>
<text transform="matrix(1 0 0 1 513.0522 102.5707)" class="st1 st2 st4">370 SQ Yard</text>
<text transform="matrix(1 0 0 1 374.5684 101.3071)" class="st1 st2 st3">6</text>
<text transform="matrix(1 0 0 1 353.9312 117.9883)" class="st1 st2 st4">540 SQ Yard</text>
<path class="st0" d="M330.8,301.7h77c0,0,30.6-9.5,31.1-29v-97.3H330.8V301.7z"/>
<polygon class="st0" points="330.8,334.4 221.1,337 219,249.5 229.5,200.4 274.9,207.8 286,175.4 330.8,175.4 "/>
<path class="st0" d="M330.8,366.1h77.5c0,0,28.5,12.7,30.6,31.6v92.8H330.8V366.1z"/>
<polygon class="st0" points="265.4,490.5 224.8,450.5 221.1,337 330.8,334.4 330.8,490.5 "/>
<polygon class="st0" points="439,636.6 402.6,631.9 264.9,492.6 439,490.5 "/>
<text transform="matrix(1 0 0 1 374.5685 233.6149)" class="st1 st2 st3">5</text>
<text transform="matrix(1 0 0 1 353.9313 250.2961)" class="st1 st2 st4">329 SQ Yard</text>
<text transform="matrix(1 0 0 1 269.6675 267.1838)" class="st1 st2 st3">4</text>
<text transform="matrix(1 0 0 1 249.0303 283.8649)" class="st1 st2 st4">385 SQ Yard</text>
<text transform="matrix(1 0 0 1 264.8901 400.4482)" class="st1 st2 st3">3</text>
<text transform="matrix(1 0 0 1 244.2529 417.1294)" class="st1 st2 st4">402 SQ Yard</text>
<text transform="matrix(1 0 0 1 374.5685 419.9561)" class="st1 st2 st3">2</text>
<text transform="matrix(1 0 0 1 353.9313 436.6372)" class="st1 st2 st4">329 SQ Yard</text>
<text transform="matrix(1 0 0 1 374.5688 537.4389)" class="st1 st2 st3">1</text>
<text transform="matrix(1 0 0 1 353.9315 554.1201)" class="st1 st2 st4">372 SQ Yard</text>
</svg>
